<mxfile host="Electron" modified="2024-01-03T08:30:03.307Z" agent="Mozilla/5.0 (Windows NT 10.0; Win64; x64) AppleWebKit/537.36 (KHTML, like Gecko) draw.io/22.1.2 Chrome/114.0.5735.289 Electron/25.9.4 Safari/537.36" etag="fSW1GrrwAD6fDBYJL0zJ" version="22.1.2" type="device">
  <diagram name="Page-1" id="13e1069c-82ec-6db2-03f1-153e76fe0fe0">
    <mxGraphModel dx="1833" dy="1490" grid="1" gridSize="10" guides="1" tooltips="1" connect="1" arrows="1" fold="1" page="1" pageScale="1" pageWidth="1100" pageHeight="850" background="none" math="0" shadow="0">
      <root>
        <mxCell id="0" />
        <mxCell id="1" parent="0" />
        <mxCell id="7baba1c4bc27f4b0-2" value=":APP" style="shape=umlLifeline;perimeter=lifelinePerimeter;whiteSpace=wrap;html=1;container=1;collapsible=0;recursiveResize=0;outlineConnect=0;rounded=1;shadow=0;comic=0;labelBackgroundColor=none;strokeWidth=1;fontFamily=Verdana;fontSize=12;align=center;" parent="1" vertex="1">
          <mxGeometry x="220" y="1120" width="100" height="580" as="geometry" />
        </mxCell>
        <mxCell id="7baba1c4bc27f4b0-10" value="" style="html=1;points=[];perimeter=orthogonalPerimeter;rounded=0;shadow=0;comic=0;labelBackgroundColor=none;strokeWidth=1;fontFamily=Verdana;fontSize=12;align=center;" parent="7baba1c4bc27f4b0-2" vertex="1">
          <mxGeometry x="50" y="100" width="10" height="210" as="geometry" />
        </mxCell>
        <mxCell id="Xn8LQXxypehM9bxRkxUg-4" value="Check&lt;br&gt;data" style="html=1;align=left;spacingLeft=2;endArrow=block;rounded=0;edgeStyle=orthogonalEdgeStyle;curved=0;rounded=0;exitX=0.952;exitY=0.088;exitDx=0;exitDy=0;exitPerimeter=0;" parent="7baba1c4bc27f4b0-2" source="7baba1c4bc27f4b0-10" edge="1">
          <mxGeometry relative="1" as="geometry">
            <mxPoint x="55" y="120" as="sourcePoint" />
            <Array as="points">
              <mxPoint x="90" y="120" />
              <mxPoint x="90" y="150" />
            </Array>
            <mxPoint x="60" y="150" as="targetPoint" />
          </mxGeometry>
        </mxCell>
        <mxCell id="Xn8LQXxypehM9bxRkxUg-5" value="Check&lt;br&gt;data" style="html=1;align=left;spacingLeft=2;endArrow=block;rounded=0;edgeStyle=orthogonalEdgeStyle;curved=0;rounded=0;exitX=0.952;exitY=0.523;exitDx=0;exitDy=0;exitPerimeter=0;" parent="7baba1c4bc27f4b0-2" source="7baba1c4bc27f4b0-10" edge="1">
          <mxGeometry relative="1" as="geometry">
            <mxPoint x="55" y="220" as="sourcePoint" />
            <Array as="points">
              <mxPoint x="90" y="220" />
              <mxPoint x="90" y="250" />
            </Array>
            <mxPoint x="60" y="250" as="targetPoint" />
          </mxGeometry>
        </mxCell>
        <mxCell id="Xn8LQXxypehM9bxRkxUg-7" value="Show payment page" style="html=1;verticalAlign=bottom;endArrow=open;dashed=1;endSize=8;curved=0;rounded=0;exitX=-0.072;exitY=0.22;exitDx=0;exitDy=0;exitPerimeter=0;entryX=1.144;entryY=0.526;entryDx=0;entryDy=0;entryPerimeter=0;" parent="7baba1c4bc27f4b0-2" target="7baba1c4bc27f4b0-9" edge="1">
          <mxGeometry relative="1" as="geometry">
            <mxPoint x="230" y="331" as="sourcePoint" />
            <mxPoint x="-130" y="331" as="targetPoint" />
          </mxGeometry>
        </mxCell>
        <mxCell id="7baba1c4bc27f4b0-23" value="Send transaction" style="html=1;verticalAlign=bottom;endArrow=block;labelBackgroundColor=none;fontFamily=Verdana;fontSize=12;" parent="7baba1c4bc27f4b0-2" edge="1">
          <mxGeometry relative="1" as="geometry">
            <mxPoint x="-145" y="380" as="sourcePoint" />
            <mxPoint x="230" y="380" as="targetPoint" />
          </mxGeometry>
        </mxCell>
        <mxCell id="Xn8LQXxypehM9bxRkxUg-10" value="" style="html=1;points=[];perimeter=orthogonalPerimeter;rounded=0;shadow=0;comic=0;labelBackgroundColor=none;strokeWidth=1;fontFamily=Verdana;fontSize=12;align=center;" parent="7baba1c4bc27f4b0-2" vertex="1">
          <mxGeometry x="50" y="400" width="10" height="70" as="geometry" />
        </mxCell>
        <mxCell id="7baba1c4bc27f4b0-3" value=":PAYMENT SYSTEM" style="shape=umlLifeline;perimeter=lifelinePerimeter;whiteSpace=wrap;html=1;container=1;collapsible=0;recursiveResize=0;outlineConnect=0;rounded=1;shadow=0;comic=0;labelBackgroundColor=none;strokeWidth=1;fontFamily=Verdana;fontSize=12;align=center;" parent="1" vertex="1">
          <mxGeometry x="380" y="1120" width="150" height="580" as="geometry" />
        </mxCell>
        <mxCell id="7baba1c4bc27f4b0-13" value="" style="html=1;points=[];perimeter=orthogonalPerimeter;rounded=0;shadow=0;comic=0;labelBackgroundColor=none;strokeWidth=1;fontFamily=Verdana;fontSize=12;align=center;" parent="7baba1c4bc27f4b0-3" vertex="1">
          <mxGeometry x="70" y="290" width="10" height="140" as="geometry" />
        </mxCell>
        <mxCell id="Xn8LQXxypehM9bxRkxUg-9" value="Payment datail" style="html=1;verticalAlign=bottom;endArrow=open;dashed=1;endSize=8;curved=0;rounded=0;exitX=-0.072;exitY=0.22;exitDx=0;exitDy=0;exitPerimeter=0;" parent="7baba1c4bc27f4b0-3" edge="1">
          <mxGeometry relative="1" as="geometry">
            <mxPoint x="70" y="410" as="sourcePoint" />
            <mxPoint x="-100" y="410" as="targetPoint" />
          </mxGeometry>
        </mxCell>
        <mxCell id="Xn8LQXxypehM9bxRkxUg-11" value="Send ticket" style="html=1;verticalAlign=bottom;endArrow=block;labelBackgroundColor=none;fontFamily=Verdana;fontSize=12;entryX=-0.42;entryY=0.153;entryDx=0;entryDy=0;entryPerimeter=0;" parent="7baba1c4bc27f4b0-3" target="7baba1c4bc27f4b0-37" edge="1">
          <mxGeometry relative="1" as="geometry">
            <mxPoint x="-100" y="460.4" as="sourcePoint" />
            <mxPoint x="206.80000000000018" y="459.9999999999999" as="targetPoint" />
          </mxGeometry>
        </mxCell>
        <mxCell id="7baba1c4bc27f4b0-8" value="USER" style="shape=umlLifeline;perimeter=lifelinePerimeter;whiteSpace=wrap;html=1;container=1;collapsible=0;recursiveResize=0;outlineConnect=0;rounded=1;shadow=0;comic=0;labelBackgroundColor=none;strokeWidth=1;fontFamily=Verdana;fontSize=12;align=center;" parent="1" vertex="1">
          <mxGeometry x="20" y="1120" width="100" height="580" as="geometry" />
        </mxCell>
        <mxCell id="7baba1c4bc27f4b0-9" value="" style="html=1;points=[];perimeter=orthogonalPerimeter;rounded=0;shadow=0;comic=0;labelBackgroundColor=none;strokeWidth=1;fontFamily=Verdana;fontSize=12;align=center;" parent="7baba1c4bc27f4b0-8" vertex="1">
          <mxGeometry x="50" y="100" width="10" height="440" as="geometry" />
        </mxCell>
        <mxCell id="7baba1c4bc27f4b0-30" value="Ticket" style="html=1;verticalAlign=bottom;endArrow=open;dashed=1;endSize=8;labelBackgroundColor=none;fontFamily=Verdana;fontSize=12;edgeStyle=elbowEdgeStyle;elbow=vertical;exitX=0;exitY=0.833;exitDx=0;exitDy=0;exitPerimeter=0;" parent="1" source="7baba1c4bc27f4b0-37" edge="1">
          <mxGeometry relative="1" as="geometry">
            <mxPoint x="75" y="1620" as="targetPoint" />
            <Array as="points">
              <mxPoint x="490" y="1620" />
            </Array>
            <mxPoint x="580" y="1620" as="sourcePoint" />
          </mxGeometry>
        </mxCell>
        <mxCell id="7baba1c4bc27f4b0-11" value="Send data&lt;br&gt;(payment detail)" style="html=1;verticalAlign=bottom;endArrow=block;labelBackgroundColor=none;fontFamily=Verdana;fontSize=12;edgeStyle=elbowEdgeStyle;elbow=vertical;exitX=1.016;exitY=0.782;exitDx=0;exitDy=0;exitPerimeter=0;entryX=-0.012;entryY=0.248;entryDx=0;entryDy=0;entryPerimeter=0;" parent="1" edge="1">
          <mxGeometry x="0.0015" relative="1" as="geometry">
            <mxPoint x="275.1600000000001" y="1420" as="sourcePoint" />
            <mxPoint x="449.8799999999999" y="1420.06" as="targetPoint" />
            <mxPoint as="offset" />
          </mxGeometry>
        </mxCell>
        <mxCell id="7baba1c4bc27f4b0-4" value=":EMAIL SERVICE" style="shape=umlLifeline;perimeter=lifelinePerimeter;whiteSpace=wrap;html=1;container=1;collapsible=0;recursiveResize=0;outlineConnect=0;rounded=1;shadow=0;comic=0;labelBackgroundColor=none;strokeWidth=1;fontFamily=Verdana;fontSize=12;align=center;" parent="1" vertex="1">
          <mxGeometry x="590" y="1120" width="100" height="580" as="geometry" />
        </mxCell>
        <mxCell id="7baba1c4bc27f4b0-37" value="" style="html=1;points=[];perimeter=orthogonalPerimeter;rounded=0;shadow=0;comic=0;labelBackgroundColor=none;strokeWidth=1;fontFamily=Verdana;fontSize=12;align=center;" parent="7baba1c4bc27f4b0-4" vertex="1">
          <mxGeometry x="45" y="450" width="10" height="60" as="geometry" />
        </mxCell>
        <mxCell id="Xn8LQXxypehM9bxRkxUg-1" value="Send data&lt;br&gt;(from, to, datetime)" style="html=1;verticalAlign=bottom;endArrow=block;labelBackgroundColor=none;fontFamily=Verdana;fontSize=12;edgeStyle=elbowEdgeStyle;elbow=vertical;exitX=0.984;exitY=0.045;exitDx=0;exitDy=0;exitPerimeter=0;entryX=-0.024;entryY=0.087;entryDx=0;entryDy=0;entryPerimeter=0;" parent="1" source="7baba1c4bc27f4b0-9" target="7baba1c4bc27f4b0-10" edge="1">
          <mxGeometry relative="1" as="geometry">
            <mxPoint x="80" y="1240" as="sourcePoint" />
            <mxPoint x="200" y="1240" as="targetPoint" />
            <mxPoint as="offset" />
          </mxGeometry>
        </mxCell>
        <mxCell id="Xn8LQXxypehM9bxRkxUg-2" value="Actuality fligts" style="html=1;verticalAlign=bottom;endArrow=open;dashed=1;endSize=8;curved=0;rounded=0;exitX=-0.072;exitY=0.22;exitDx=0;exitDy=0;exitPerimeter=0;entryX=1.176;entryY=0.102;entryDx=0;entryDy=0;entryPerimeter=0;" parent="1" source="7baba1c4bc27f4b0-10" target="7baba1c4bc27f4b0-9" edge="1">
          <mxGeometry relative="1" as="geometry">
            <mxPoint x="262.67999999999995" y="1270.42" as="sourcePoint" />
            <mxPoint x="77.08000000000004" y="1270" as="targetPoint" />
          </mxGeometry>
        </mxCell>
        <mxCell id="7baba1c4bc27f4b0-14" value="Send data&lt;br&gt;(seat type, meal, etc.)" style="html=1;verticalAlign=bottom;endArrow=block;labelBackgroundColor=none;fontFamily=Verdana;fontSize=12;edgeStyle=elbowEdgeStyle;elbow=vertical;exitX=1.048;exitY=0.273;exitDx=0;exitDy=0;exitPerimeter=0;" parent="1" source="7baba1c4bc27f4b0-9" target="7baba1c4bc27f4b0-2" edge="1">
          <mxGeometry relative="1" as="geometry">
            <mxPoint x="80" y="1340" as="sourcePoint" />
            <mxPoint x="245" y="1340.0000000000002" as="targetPoint" />
          </mxGeometry>
        </mxCell>
        <mxCell id="_mPRwDxY-uZuB9yZV3TX-1" value="" style="shape=umlLifeline;perimeter=lifelinePerimeter;whiteSpace=wrap;html=1;container=1;collapsible=0;recursiveResize=0;outlineConnect=0;rounded=1;shadow=0;comic=0;labelBackgroundColor=none;strokeWidth=1;fontFamily=Verdana;fontSize=12;align=center;size=120;" parent="1" vertex="1">
          <mxGeometry x="200" y="80" width="150" height="840" as="geometry" />
        </mxCell>
        <mxCell id="_mPRwDxY-uZuB9yZV3TX-5" value="Gate, Check-in,&lt;br&gt;Supervisor managers" style="shape=umlActor;verticalLabelPosition=bottom;verticalAlign=top;html=1;" parent="_mPRwDxY-uZuB9yZV3TX-1" vertex="1">
          <mxGeometry x="60" y="20" width="30" height="60" as="geometry" />
        </mxCell>
        <mxCell id="_mPRwDxY-uZuB9yZV3TX-58" value="" style="html=1;points=[[0,0,0,0,5],[0,1,0,0,-5],[1,0,0,0,5],[1,1,0,0,-5]];perimeter=orthogonalPerimeter;outlineConnect=0;targetShapes=umlLifeline;portConstraint=eastwest;newEdgeStyle={&quot;curved&quot;:0,&quot;rounded&quot;:0};" parent="_mPRwDxY-uZuB9yZV3TX-1" vertex="1">
          <mxGeometry x="70" y="530" width="10" height="50" as="geometry" />
        </mxCell>
        <mxCell id="_mPRwDxY-uZuB9yZV3TX-68" value="" style="html=1;verticalAlign=bottom;endArrow=open;dashed=1;endSize=8;curved=0;rounded=0;" parent="_mPRwDxY-uZuB9yZV3TX-1" edge="1">
          <mxGeometry relative="1" as="geometry">
            <mxPoint x="70" y="569.9999999999999" as="sourcePoint" />
            <mxPoint x="-120" y="570" as="targetPoint" />
          </mxGeometry>
        </mxCell>
        <mxCell id="_mPRwDxY-uZuB9yZV3TX-86" value="" style="html=1;points=[[0,0,0,0,5],[0,1,0,0,-5],[1,0,0,0,5],[1,1,0,0,-5]];perimeter=orthogonalPerimeter;outlineConnect=0;targetShapes=umlLifeline;portConstraint=eastwest;newEdgeStyle={&quot;curved&quot;:0,&quot;rounded&quot;:0};" parent="_mPRwDxY-uZuB9yZV3TX-1" vertex="1">
          <mxGeometry x="70" y="610" width="10" height="100" as="geometry" />
        </mxCell>
        <mxCell id="_mPRwDxY-uZuB9yZV3TX-88" value="" style="html=1;verticalAlign=bottom;endArrow=open;dashed=1;endSize=8;curved=0;rounded=0;" parent="_mPRwDxY-uZuB9yZV3TX-1" edge="1">
          <mxGeometry relative="1" as="geometry">
            <mxPoint x="70" y="699.9999999999999" as="sourcePoint" />
            <mxPoint x="-120" y="700" as="targetPoint" />
          </mxGeometry>
        </mxCell>
        <mxCell id="_mPRwDxY-uZuB9yZV3TX-89" value="Makes check-in passenger" style="html=1;verticalAlign=bottom;endArrow=block;curved=0;rounded=0;" parent="_mPRwDxY-uZuB9yZV3TX-1" edge="1" target="_mPRwDxY-uZuB9yZV3TX-67">
          <mxGeometry x="0.0025" width="80" relative="1" as="geometry">
            <mxPoint x="80" y="630" as="sourcePoint" />
            <mxPoint x="280" y="630" as="targetPoint" />
            <mxPoint as="offset" />
          </mxGeometry>
        </mxCell>
        <mxCell id="_mPRwDxY-uZuB9yZV3TX-91" value="" style="html=1;points=[[0,0,0,0,5],[0,1,0,0,-5],[1,0,0,0,5],[1,1,0,0,-5]];perimeter=orthogonalPerimeter;outlineConnect=0;targetShapes=umlLifeline;portConstraint=eastwest;newEdgeStyle={&quot;curved&quot;:0,&quot;rounded&quot;:0};" parent="_mPRwDxY-uZuB9yZV3TX-1" vertex="1">
          <mxGeometry x="70" y="740" width="10" height="50" as="geometry" />
        </mxCell>
        <mxCell id="_mPRwDxY-uZuB9yZV3TX-40" value="" style="html=1;verticalAlign=bottom;endArrow=open;dashed=1;endSize=8;curved=0;rounded=0;" parent="_mPRwDxY-uZuB9yZV3TX-1" edge="1">
          <mxGeometry relative="1" as="geometry">
            <mxPoint x="285" y="190.0000000000001" as="sourcePoint" />
            <mxPoint x="-120" y="190" as="targetPoint" />
          </mxGeometry>
        </mxCell>
        <mxCell id="_mPRwDxY-uZuB9yZV3TX-85" value="Register the boarding&lt;br style=&quot;border-color: var(--border-color); font-size: 12px; background-color: rgb(251, 251, 251);&quot;&gt;&lt;span style=&quot;font-size: 12px; background-color: rgb(251, 251, 251);&quot;&gt;of the passenger&lt;/span&gt;" style="html=1;verticalAlign=bottom;endArrow=block;curved=0;rounded=0;" parent="_mPRwDxY-uZuB9yZV3TX-1" target="_mPRwDxY-uZuB9yZV3TX-60" edge="1">
          <mxGeometry x="0.0049" width="80" relative="1" as="geometry">
            <mxPoint x="80" y="550" as="sourcePoint" />
            <mxPoint x="280" y="550" as="targetPoint" />
            <mxPoint as="offset" />
          </mxGeometry>
        </mxCell>
        <mxCell id="_mPRwDxY-uZuB9yZV3TX-63" value="" style="html=1;verticalAlign=bottom;endArrow=open;dashed=1;endSize=8;curved=0;rounded=0;" parent="_mPRwDxY-uZuB9yZV3TX-1" edge="1">
          <mxGeometry relative="1" as="geometry">
            <mxPoint x="285" y="559.5" as="sourcePoint" />
            <mxPoint x="80" y="559.5" as="targetPoint" />
          </mxGeometry>
        </mxCell>
        <mxCell id="_mPRwDxY-uZuB9yZV3TX-11" value="" style="shape=umlLifeline;perimeter=lifelinePerimeter;whiteSpace=wrap;html=1;container=1;collapsible=0;recursiveResize=0;outlineConnect=0;rounded=1;shadow=0;comic=0;labelBackgroundColor=none;strokeWidth=1;fontFamily=Verdana;fontSize=12;align=center;size=120;" parent="1" vertex="1">
          <mxGeometry y="80" width="150" height="840" as="geometry" />
        </mxCell>
        <mxCell id="_mPRwDxY-uZuB9yZV3TX-12" value="User" style="shape=umlActor;verticalLabelPosition=bottom;verticalAlign=top;html=1;" parent="_mPRwDxY-uZuB9yZV3TX-11" vertex="1">
          <mxGeometry x="60" y="20" width="30" height="60" as="geometry" />
        </mxCell>
        <mxCell id="_mPRwDxY-uZuB9yZV3TX-35" value="" style="html=1;points=[[0,0,0,0,5],[0,1,0,0,-5],[1,0,0,0,5],[1,1,0,0,-5]];perimeter=orthogonalPerimeter;outlineConnect=0;targetShapes=umlLifeline;portConstraint=eastwest;newEdgeStyle={&quot;curved&quot;:0,&quot;rounded&quot;:0};" parent="_mPRwDxY-uZuB9yZV3TX-11" vertex="1">
          <mxGeometry x="70" y="160" width="10" height="660" as="geometry" />
        </mxCell>
        <mxCell id="_mPRwDxY-uZuB9yZV3TX-36" value="Registration" style="html=1;verticalAlign=bottom;endArrow=block;curved=0;rounded=0;" parent="_mPRwDxY-uZuB9yZV3TX-11" target="_mPRwDxY-uZuB9yZV3TX-37" edge="1">
          <mxGeometry width="80" relative="1" as="geometry">
            <mxPoint x="80" y="180" as="sourcePoint" />
            <mxPoint x="230" y="180" as="targetPoint" />
          </mxGeometry>
        </mxCell>
        <mxCell id="_mPRwDxY-uZuB9yZV3TX-20" value=":APP" style="shape=umlLifeline;perimeter=lifelinePerimeter;whiteSpace=wrap;html=1;container=1;collapsible=0;recursiveResize=0;outlineConnect=0;rounded=1;shadow=0;comic=0;labelBackgroundColor=none;strokeWidth=1;fontFamily=Verdana;fontSize=12;align=center;" parent="1" vertex="1">
          <mxGeometry x="440" y="160" width="100" height="760" as="geometry" />
        </mxCell>
        <mxCell id="_mPRwDxY-uZuB9yZV3TX-37" value="" style="html=1;points=[[0,0,0,0,5],[0,1,0,0,-5],[1,0,0,0,5],[1,1,0,0,-5]];perimeter=orthogonalPerimeter;outlineConnect=0;targetShapes=umlLifeline;portConstraint=eastwest;newEdgeStyle={&quot;curved&quot;:0,&quot;rounded&quot;:0};" parent="_mPRwDxY-uZuB9yZV3TX-20" vertex="1">
          <mxGeometry x="45" y="90" width="10" height="190" as="geometry" />
        </mxCell>
        <mxCell id="_mPRwDxY-uZuB9yZV3TX-51" value="" style="html=1;points=[[0,0,0,0,5],[0,1,0,0,-5],[1,0,0,0,5],[1,1,0,0,-5]];perimeter=orthogonalPerimeter;outlineConnect=0;targetShapes=umlLifeline;portConstraint=eastwest;newEdgeStyle={&quot;curved&quot;:0,&quot;rounded&quot;:0};" parent="_mPRwDxY-uZuB9yZV3TX-20" vertex="1">
          <mxGeometry x="45" y="340" width="10" height="60" as="geometry" />
        </mxCell>
        <mxCell id="_mPRwDxY-uZuB9yZV3TX-67" value="" style="html=1;points=[[0,0,0,0,5],[0,1,0,0,-5],[1,0,0,0,5],[1,1,0,0,-5]];perimeter=orthogonalPerimeter;outlineConnect=0;targetShapes=umlLifeline;portConstraint=eastwest;newEdgeStyle={&quot;curved&quot;:0,&quot;rounded&quot;:0};" parent="_mPRwDxY-uZuB9yZV3TX-20" vertex="1">
          <mxGeometry x="45" y="540" width="10" height="80" as="geometry" />
        </mxCell>
        <mxCell id="_mPRwDxY-uZuB9yZV3TX-60" value="" style="html=1;points=[[0,0,0,0,5],[0,1,0,0,-5],[1,0,0,0,5],[1,1,0,0,-5]];perimeter=orthogonalPerimeter;outlineConnect=0;targetShapes=umlLifeline;portConstraint=eastwest;newEdgeStyle={&quot;curved&quot;:0,&quot;rounded&quot;:0};" parent="_mPRwDxY-uZuB9yZV3TX-20" vertex="1">
          <mxGeometry x="45" y="460" width="10" height="30" as="geometry" />
        </mxCell>
        <mxCell id="_mPRwDxY-uZuB9yZV3TX-96" value="" style="html=1;points=[[0,0,0,0,5],[0,1,0,0,-5],[1,0,0,0,5],[1,1,0,0,-5]];perimeter=orthogonalPerimeter;outlineConnect=0;targetShapes=umlLifeline;portConstraint=eastwest;newEdgeStyle={&quot;curved&quot;:0,&quot;rounded&quot;:0};" parent="_mPRwDxY-uZuB9yZV3TX-20" vertex="1">
          <mxGeometry x="45" y="670" width="10" height="30" as="geometry" />
        </mxCell>
        <mxCell id="_mPRwDxY-uZuB9yZV3TX-49" value="Show payment page" style="html=1;verticalAlign=bottom;endArrow=open;dashed=1;endSize=8;curved=0;rounded=0;" parent="_mPRwDxY-uZuB9yZV3TX-20" edge="1">
          <mxGeometry relative="1" as="geometry">
            <mxPoint x="240" y="290" as="sourcePoint" />
            <mxPoint x="-360" y="290" as="targetPoint" />
          </mxGeometry>
        </mxCell>
        <mxCell id="_mPRwDxY-uZuB9yZV3TX-95" value="" style="html=1;verticalAlign=bottom;endArrow=open;dashed=1;endSize=8;curved=0;rounded=0;" parent="_mPRwDxY-uZuB9yZV3TX-20" edge="1">
          <mxGeometry relative="1" as="geometry">
            <mxPoint x="45" y="690" as="sourcePoint" />
            <mxPoint x="-160" y="690" as="targetPoint" />
          </mxGeometry>
        </mxCell>
        <mxCell id="_mPRwDxY-uZuB9yZV3TX-27" value=":PAYMENT SYSTEM" style="shape=umlLifeline;perimeter=lifelinePerimeter;whiteSpace=wrap;html=1;container=1;collapsible=0;recursiveResize=0;outlineConnect=0;rounded=1;shadow=0;comic=0;labelBackgroundColor=none;strokeWidth=1;fontFamily=Verdana;fontSize=12;align=center;" parent="1" vertex="1">
          <mxGeometry x="610" y="160" width="150" height="760" as="geometry" />
        </mxCell>
        <mxCell id="_mPRwDxY-uZuB9yZV3TX-47" value="" style="html=1;points=[[0,0,0,0,5],[0,1,0,0,-5],[1,0,0,0,5],[1,1,0,0,-5]];perimeter=orthogonalPerimeter;outlineConnect=0;targetShapes=umlLifeline;portConstraint=eastwest;newEdgeStyle={&quot;curved&quot;:0,&quot;rounded&quot;:0};" parent="_mPRwDxY-uZuB9yZV3TX-27" vertex="1">
          <mxGeometry x="70" y="260" width="10" height="100" as="geometry" />
        </mxCell>
        <mxCell id="_mPRwDxY-uZuB9yZV3TX-33" value=":EMAIL SERVICE" style="shape=umlLifeline;perimeter=lifelinePerimeter;whiteSpace=wrap;html=1;container=1;collapsible=0;recursiveResize=0;outlineConnect=0;rounded=1;shadow=0;comic=0;labelBackgroundColor=none;strokeWidth=1;fontFamily=Verdana;fontSize=12;align=center;" parent="1" vertex="1">
          <mxGeometry x="830" y="160" width="150" height="750" as="geometry" />
        </mxCell>
        <mxCell id="_mPRwDxY-uZuB9yZV3TX-54" value="" style="html=1;points=[[0,0,0,0,5],[0,1,0,0,-5],[1,0,0,0,5],[1,1,0,0,-5]];perimeter=orthogonalPerimeter;outlineConnect=0;targetShapes=umlLifeline;portConstraint=eastwest;newEdgeStyle={&quot;curved&quot;:0,&quot;rounded&quot;:0};" parent="_mPRwDxY-uZuB9yZV3TX-33" vertex="1">
          <mxGeometry x="70" y="380" width="10" height="50" as="geometry" />
        </mxCell>
        <mxCell id="_mPRwDxY-uZuB9yZV3TX-41" value="Send data&lt;br&gt;(from, to, datetime)" style="html=1;verticalAlign=bottom;endArrow=block;labelBackgroundColor=none;fontFamily=Verdana;fontSize=12;edgeStyle=elbowEdgeStyle;elbow=vertical;exitX=0.984;exitY=0.045;exitDx=0;exitDy=0;exitPerimeter=0;entryX=-0.024;entryY=0.087;entryDx=0;entryDy=0;entryPerimeter=0;" parent="1" edge="1">
          <mxGeometry relative="1" as="geometry">
            <mxPoint x="90" y="1250" as="sourcePoint" />
            <mxPoint x="280" y="1248" as="targetPoint" />
            <mxPoint as="offset" />
          </mxGeometry>
        </mxCell>
        <mxCell id="_mPRwDxY-uZuB9yZV3TX-70" value=":Flight" style="shape=umlLifeline;perimeter=lifelinePerimeter;whiteSpace=wrap;html=1;container=1;collapsible=0;recursiveResize=0;outlineConnect=0;rounded=1;shadow=0;comic=0;labelBackgroundColor=none;strokeWidth=1;fontFamily=Verdana;fontSize=12;align=center;" parent="1" vertex="1">
          <mxGeometry x="1040" y="160" width="150" height="760" as="geometry" />
        </mxCell>
        <mxCell id="_mPRwDxY-uZuB9yZV3TX-81" value="Flight" style="html=1;verticalAlign=bottom;endArrow=block;curved=0;rounded=0;" parent="1" edge="1">
          <mxGeometry width="80" relative="1" as="geometry">
            <mxPoint x="80" y="890" as="sourcePoint" />
            <mxPoint x="1110" y="890" as="targetPoint" />
          </mxGeometry>
        </mxCell>
        <mxCell id="_mPRwDxY-uZuB9yZV3TX-50" value="Payment" style="html=1;verticalAlign=bottom;endArrow=block;curved=0;rounded=0;" parent="1" edge="1">
          <mxGeometry width="80" relative="1" as="geometry">
            <mxPoint x="80" y="490" as="sourcePoint" />
            <mxPoint x="680" y="490" as="targetPoint" />
          </mxGeometry>
        </mxCell>
        <mxCell id="_mPRwDxY-uZuB9yZV3TX-44" value="Actualily flights" style="html=1;verticalAlign=bottom;endArrow=open;dashed=1;endSize=8;curved=0;rounded=0;" parent="1" edge="1">
          <mxGeometry relative="1" as="geometry">
            <mxPoint x="485" y="380" as="sourcePoint" />
            <mxPoint x="80" y="380" as="targetPoint" />
          </mxGeometry>
        </mxCell>
        <mxCell id="_mPRwDxY-uZuB9yZV3TX-42" value="Send data (from, to, date)" style="html=1;verticalAlign=bottom;endArrow=block;curved=0;rounded=0;" parent="1" edge="1">
          <mxGeometry width="80" relative="1" as="geometry">
            <mxPoint x="80" y="360" as="sourcePoint" />
            <mxPoint x="485" y="360.0000000000001" as="targetPoint" />
          </mxGeometry>
        </mxCell>
        <mxCell id="_mPRwDxY-uZuB9yZV3TX-100" value="Authorization" style="html=1;verticalAlign=bottom;endArrow=block;curved=0;rounded=0;" parent="1" edge="1">
          <mxGeometry width="80" relative="1" as="geometry">
            <mxPoint x="80" y="310" as="sourcePoint" />
            <mxPoint x="485" y="310" as="targetPoint" />
          </mxGeometry>
        </mxCell>
        <mxCell id="_mPRwDxY-uZuB9yZV3TX-101" value="" style="html=1;verticalAlign=bottom;endArrow=open;dashed=1;endSize=8;curved=0;rounded=0;" parent="1" edge="1">
          <mxGeometry relative="1" as="geometry">
            <mxPoint x="485" y="320.0000000000001" as="sourcePoint" />
            <mxPoint x="80" y="320" as="targetPoint" />
          </mxGeometry>
        </mxCell>
        <mxCell id="_mPRwDxY-uZuB9yZV3TX-45" value="Send flight data (seat type, meal, etc)" style="html=1;verticalAlign=bottom;endArrow=block;curved=0;rounded=0;" parent="1" edge="1">
          <mxGeometry width="80" relative="1" as="geometry">
            <mxPoint x="80" y="420" as="sourcePoint" />
            <mxPoint x="485" y="420" as="targetPoint" />
          </mxGeometry>
        </mxCell>
        <mxCell id="_mPRwDxY-uZuB9yZV3TX-46" value="Send payment data" style="html=1;verticalAlign=bottom;endArrow=block;curved=0;rounded=0;" parent="1" edge="1">
          <mxGeometry width="80" relative="1" as="geometry">
            <mxPoint x="495" y="430" as="sourcePoint" />
            <mxPoint x="680" y="430" as="targetPoint" />
          </mxGeometry>
        </mxCell>
        <mxCell id="_mPRwDxY-uZuB9yZV3TX-102" value="&lt;div&gt;Successful payment&lt;/div&gt;" style="html=1;verticalAlign=bottom;endArrow=open;dashed=1;endSize=8;curved=0;rounded=0;" parent="1" target="_mPRwDxY-uZuB9yZV3TX-51" edge="1">
          <mxGeometry relative="1" as="geometry">
            <mxPoint x="675" y="510" as="sourcePoint" />
            <mxPoint x="510" y="510" as="targetPoint" />
          </mxGeometry>
        </mxCell>
        <mxCell id="_mPRwDxY-uZuB9yZV3TX-55" value="Check email" style="html=1;verticalAlign=bottom;endArrow=open;dashed=1;endSize=8;curved=0;rounded=0;align=left;" parent="1" edge="1">
          <mxGeometry relative="1" as="geometry">
            <mxPoint x="900" y="580" as="sourcePoint" />
            <mxPoint x="80" y="580" as="targetPoint" />
          </mxGeometry>
        </mxCell>
        <mxCell id="_mPRwDxY-uZuB9yZV3TX-53" value="Send email" style="html=1;verticalAlign=bottom;endArrow=block;curved=0;rounded=0;" parent="1" target="_mPRwDxY-uZuB9yZV3TX-54" edge="1">
          <mxGeometry width="80" relative="1" as="geometry">
            <mxPoint x="495" y="550" as="sourcePoint" />
            <mxPoint x="895" y="550" as="targetPoint" />
          </mxGeometry>
        </mxCell>
        <mxCell id="_mPRwDxY-uZuB9yZV3TX-84" value="Go to Gate manager" style="html=1;verticalAlign=bottom;endArrow=block;curved=0;rounded=0;" parent="1" edge="1" source="_mPRwDxY-uZuB9yZV3TX-35">
          <mxGeometry width="80" relative="1" as="geometry">
            <mxPoint x="85" y="620" as="sourcePoint" />
            <mxPoint x="270" y="620" as="targetPoint" />
          </mxGeometry>
        </mxCell>
        <mxCell id="_mPRwDxY-uZuB9yZV3TX-87" value="Go to Check-in manager" style="html=1;verticalAlign=bottom;endArrow=block;curved=0;rounded=0;" parent="1" edge="1" source="_mPRwDxY-uZuB9yZV3TX-35">
          <mxGeometry width="80" relative="1" as="geometry">
            <mxPoint x="85" y="700" as="sourcePoint" />
            <mxPoint x="270" y="700" as="targetPoint" />
          </mxGeometry>
        </mxCell>
        <mxCell id="_mPRwDxY-uZuB9yZV3TX-90" value="" style="html=1;verticalAlign=bottom;endArrow=open;dashed=1;endSize=8;curved=0;rounded=0;" parent="1" edge="1">
          <mxGeometry relative="1" as="geometry">
            <mxPoint x="485" y="719.66" as="sourcePoint" />
            <mxPoint x="280" y="719.66" as="targetPoint" />
          </mxGeometry>
        </mxCell>
        <mxCell id="clpSX0AIYcI8nLVLy4rX-1" value="Add options and take&lt;br&gt;a fee for luggage" style="html=1;verticalAlign=bottom;endArrow=block;curved=0;rounded=0;" edge="1" parent="1">
          <mxGeometry x="0.0025" width="80" relative="1" as="geometry">
            <mxPoint x="280" y="760" as="sourcePoint" />
            <mxPoint x="485" y="760" as="targetPoint" />
            <mxPoint as="offset" />
          </mxGeometry>
        </mxCell>
        <mxCell id="clpSX0AIYcI8nLVLy4rX-2" value="" style="html=1;verticalAlign=bottom;endArrow=open;dashed=1;endSize=8;curved=0;rounded=0;" edge="1" parent="1">
          <mxGeometry relative="1" as="geometry">
            <mxPoint x="485" y="769.66" as="sourcePoint" />
            <mxPoint x="280" y="769.66" as="targetPoint" />
          </mxGeometry>
        </mxCell>
        <mxCell id="_mPRwDxY-uZuB9yZV3TX-92" value="Go to supervisor" style="html=1;verticalAlign=bottom;endArrow=block;curved=0;rounded=0;" parent="1" edge="1">
          <mxGeometry width="80" relative="1" as="geometry">
            <mxPoint x="85" y="830" as="sourcePoint" />
            <mxPoint x="270" y="830" as="targetPoint" />
          </mxGeometry>
        </mxCell>
        <mxCell id="_mPRwDxY-uZuB9yZV3TX-93" value="" style="html=1;verticalAlign=bottom;endArrow=open;dashed=1;endSize=8;curved=0;rounded=0;" parent="1" edge="1">
          <mxGeometry relative="1" as="geometry">
            <mxPoint x="270" y="859.9999999999999" as="sourcePoint" />
            <mxPoint x="80" y="860" as="targetPoint" />
          </mxGeometry>
        </mxCell>
        <mxCell id="_mPRwDxY-uZuB9yZV3TX-94" value="Gate and check-in managers&lt;br&gt;functuonality" style="html=1;verticalAlign=bottom;endArrow=block;curved=0;rounded=0;" parent="1" edge="1" target="_mPRwDxY-uZuB9yZV3TX-96">
          <mxGeometry width="80" relative="1" as="geometry">
            <mxPoint x="280" y="840" as="sourcePoint" />
            <mxPoint x="480" y="840" as="targetPoint" />
          </mxGeometry>
        </mxCell>
      </root>
    </mxGraphModel>
  </diagram>
</mxfile>
